<svg width="46" height="46" viewBox="0 0 46 46" fill="none" xmlns="http://www.w3.org/2000/svg">
<rect width="46" height="46" rx="8" fill="white"/>
<path d="M34.4833 36C31.4741 36 28.5009 35.3442 25.5639 34.0327C22.6269 32.7211 19.9546 30.8611 17.5472 28.4528C15.1398 26.0454 13.2803 23.3731 11.9688 20.4361C10.6572 17.4991 10.001 14.5259 10 11.5167C10 11.0833 10.1444 10.7222 10.4333 10.4333C10.7222 10.1444 11.0833 10 11.5167 10H17.3667C17.7037 10 18.0046 10.1146 18.2694 10.3438C18.5343 10.573 18.6907 10.8436 18.7389 11.1556L19.6778 16.2111C19.7259 16.5963 19.7139 16.9213 19.6417 17.1861C19.5694 17.4509 19.437 17.6796 19.2444 17.8722L15.7417 21.4111C16.2231 22.3019 16.7947 23.1623 17.4562 23.9923C18.1178 24.8224 18.8463 25.6231 19.6417 26.3944C20.388 27.1407 21.1704 27.8331 21.9889 28.4716C22.8074 29.11 23.6741 29.6936 24.5889 30.2222L27.9833 26.8278C28.2 26.6111 28.4831 26.4489 28.8327 26.341C29.1822 26.2331 29.525 26.2028 29.8611 26.25L34.8444 27.2611C35.1815 27.3574 35.4583 27.5322 35.675 27.7854C35.8917 28.0387 36 28.3213 36 28.6333V34.4833C36 34.9167 35.8556 35.2778 35.5667 35.5667C35.2778 35.8556 34.9167 36 34.4833 36Z" fill="#6ECC90"/>
</svg>
