<svg width="46" height="46" viewBox="0 0 46 46" fill="none" xmlns="http://www.w3.org/2000/svg">
<rect width="46" height="46" rx="8" fill="white"/>
<path d="M34.4589 16.5721H17.5028C16.6507 16.5835 15.8379 16.9323 15.2425 17.5419C14.647 18.1516 14.3176 18.9724 14.3263 19.8245V28.4977C14.3333 29.3581 14.6783 30.1813 15.2867 30.7897C15.8951 31.3981 16.7183 31.7431 17.5787 31.7502V34.3413C17.5782 34.5469 17.6362 34.7485 17.7459 34.9225C17.8557 35.0964 18.0126 35.2355 18.1985 35.3236C18.3843 35.4117 18.5914 35.4451 18.7955 35.42C18.9996 35.3948 19.1924 35.3121 19.3513 35.1815L23.5415 31.7502H34.4589C35.311 31.7387 36.1238 31.39 36.7192 30.7803C37.3146 30.1707 37.6441 29.3498 37.6354 28.4977V19.8245C37.6441 18.9724 37.3146 18.1516 36.7192 17.5419C36.1238 16.9323 35.311 16.5835 34.4589 16.5721ZM20.2891 25.7873C19.9674 25.7873 19.653 25.692 19.3856 25.5133C19.1182 25.3346 18.9097 25.0806 18.7866 24.7835C18.6635 24.4863 18.6313 24.1593 18.6941 23.8439C18.7568 23.5284 18.9117 23.2386 19.1392 23.0112C19.3666 22.7838 19.6563 22.6289 19.9718 22.5662C20.2873 22.5034 20.6142 22.5356 20.9114 22.6587C21.2085 22.7818 21.4625 22.9902 21.6412 23.2576C21.8199 23.5251 21.9153 23.8395 21.9153 24.1611C21.9153 24.5924 21.7439 25.0061 21.439 25.311C21.134 25.616 20.7204 25.7873 20.2891 25.7873ZM26.2519 25.7873C25.9302 25.7873 25.6158 25.692 25.3484 25.5133C25.081 25.3346 24.8725 25.0806 24.7494 24.7835C24.6264 24.4863 24.5941 24.1593 24.6569 23.8439C24.7196 23.5284 24.8745 23.2386 25.102 23.0112C25.3294 22.7838 25.6192 22.6289 25.9346 22.5662C26.2501 22.5034 26.577 22.5356 26.8742 22.6587C27.1713 22.7818 27.4253 22.9902 27.604 23.2576C27.7827 23.5251 27.8781 23.8395 27.8781 24.1611C27.8781 24.5924 27.7068 25.0061 27.4018 25.311C27.0968 25.616 26.6832 25.7873 26.2519 25.7873ZM32.2147 25.7873C31.893 25.7873 31.5786 25.692 31.3112 25.5133C31.0438 25.3346 30.8353 25.0806 30.7122 24.7835C30.5892 24.4863 30.557 24.1593 30.6197 23.8439C30.6825 23.5284 30.8373 23.2386 31.0648 23.0112C31.2922 22.7838 31.582 22.6289 31.8974 22.5662C32.2129 22.5034 32.5399 22.5356 32.837 22.6587C33.1342 22.7818 33.3881 22.9902 33.5668 23.2576C33.7455 23.5251 33.8409 23.8395 33.8409 24.1611C33.8409 24.5924 33.6696 25.0061 33.3646 25.311C33.0596 25.616 32.646 25.7873 32.2147 25.7873ZM13.2421 26.3294H11.54C10.6879 26.318 9.87508 25.9692 9.27966 25.3596C8.68423 24.7499 8.35476 23.9291 8.36345 23.077V14.4038C8.35476 13.5517 8.68423 12.7309 9.27966 12.1212C9.87508 11.5116 10.6879 11.1628 11.54 11.1514H28.4961C29.3482 11.1628 30.161 11.5116 30.7564 12.1212C31.3518 12.7309 31.6813 13.5517 31.6726 14.4038V15.488H17.5028C16.3632 15.4994 15.2746 15.9624 14.4759 16.7754C13.6771 17.5883 13.2334 18.6849 13.2421 19.8245V26.3294Z" fill="#6ECC90"/>
</svg>
