<svg width="46" height="46" viewBox="0 0 46 46" fill="none" xmlns="http://www.w3.org/2000/svg">
<rect width="46" height="46" rx="8" fill="white"/>
<path fill-rule="evenodd" clip-rule="evenodd" d="M22.5 7C19.45 7 16.5249 8.21016 14.3683 10.3643C12.2116 12.5184 11 15.44 11 18.4863C11 24.83 17.2391 31.6933 22.5 38C27.7609 31.6933 34 24.83 34 18.4863C34 15.44 32.7884 12.5184 30.6317 10.3643C28.4751 8.21016 25.55 7 22.5 7ZM22.5 23.9597C21.4162 23.9597 20.3567 23.6387 19.4556 23.0372C18.5544 22.4358 17.852 21.581 17.4373 20.5809C17.0225 19.5808 16.914 18.4803 17.1254 17.4185C17.3369 16.3568 17.8588 15.3816 18.6252 14.6161C19.3915 13.8506 20.3679 13.3294 21.4309 13.1182C22.4939 12.907 23.5957 13.0154 24.597 13.4296C25.5984 13.8439 26.4542 14.5454 27.0563 15.4455C27.6585 16.3456 27.9798 17.4038 27.9798 18.4863C27.9771 19.9371 27.3989 21.3277 26.3718 22.3535C25.3447 23.3794 23.9525 23.9569 22.5 23.9597Z" fill="#6ECC90"/>
</svg>
